<svg width="27" height="27" viewBox="0 0 27 27" fill="none" xmlns="http://www.w3.org/2000/svg">
<path d="M4.05 21.6016H9.774C9.95167 21.6026 10.1278 21.5686 10.2923 21.5014C10.4568 21.4342 10.6064 21.3353 10.7325 21.2102L20.0745 11.8574L23.9085 8.10548C24.035 7.98001 24.1355 7.83075 24.204 7.66628C24.2725 7.50182 24.3078 7.32542 24.3078 7.14726C24.3078 6.96909 24.2725 6.79269 24.204 6.62823C24.1355 6.46377 24.035 6.3145 23.9085 6.18903L18.1845 0.399212C18.059 0.272715 17.9097 0.172312 17.7452 0.103794C17.5807 0.0352764 17.4042 0 17.226 0C17.0478 0 16.8713 0.0352764 16.7068 0.103794C16.5423 0.172312 16.393 0.272715 16.2675 0.399212L12.4605 4.2186L3.0915 13.5714C2.96638 13.6975 2.86739 13.8471 2.80021 14.0115C2.73303 14.1759 2.69897 14.352 2.7 14.5296V20.252C2.7 20.6099 2.84223 20.9532 3.09541 21.2063C3.34858 21.4594 3.69196 21.6016 4.05 21.6016ZM17.226 3.26038L21.0465 7.07978L19.1295 8.99622L15.309 5.17683L17.226 3.26038ZM5.4 15.083L13.4055 7.07978L17.226 10.8992L9.2205 18.9023H5.4V15.083ZM25.65 24.3008H1.35C0.991958 24.3008 0.64858 24.443 0.395406 24.6961C0.142232 24.9492 0 25.2925 0 25.6504C0 26.0083 0.142232 26.3516 0.395406 26.6047C0.64858 26.8578 0.991958 27 1.35 27H25.65C26.008 27 26.3514 26.8578 26.6046 26.6047C26.8578 26.3516 27 26.0083 27 25.6504C27 25.2925 26.8578 24.9492 26.6046 24.6961C26.3514 24.443 26.008 24.3008 25.65 24.3008Z" fill="black"/>
</svg>
