<svg width="27" height="27" viewBox="0 0 27 27" fill="none" xmlns="http://www.w3.org/2000/svg">
<path fill-rule="evenodd" clip-rule="evenodd" d="M13.6896 10.827V16.173C13.6896 16.173 18.9489 16.1664 21.0909 16.1664C19.9311 19.6323 18.1283 21.5196 13.6896 21.5196C9.19857 21.5196 5.6925 17.9291 5.6925 13.5C5.6925 9.0709 9.19857 5.48044 13.6896 5.48044C16.0644 5.48044 17.5984 6.30312 19.0052 7.45034C20.1307 6.34004 20.0368 6.18191 22.9022 3.51386C20.4699 1.33072 17.2378 0 13.6896 0C6.12957 0 0 6.04414 0 13.5C0 20.9553 6.129 27 13.6896 27C24.9908 27 27.7532 17.2965 26.8374 10.827H13.6896Z" fill="#0B0B0A"/>
</svg>
