<svg width="27" height="27" viewBox="0 0 27 27" fill="none" xmlns="http://www.w3.org/2000/svg">
<path d="M26.0573 10.908C25.6779 10.4526 25.2032 10.086 24.6666 9.83407C24.1301 9.58215 23.5448 9.45105 22.952 9.45004H16.7955L17.5515 7.51954C17.866 6.67429 17.9707 5.76536 17.8567 4.87074C17.7427 3.97612 17.4134 3.1225 16.897 2.38311C16.3805 1.64373 15.6925 1.04063 14.8917 0.625572C14.091 0.210511 13.2015 -0.00413022 12.2996 6.0198e-05C12.0399 0.000602035 11.7858 0.0760316 11.5679 0.217305C11.35 0.358579 11.1774 0.559701 11.071 0.796558L7.22313 9.45004H4.05035C2.97613 9.45004 1.94591 9.87673 1.18632 10.6363C0.426732 11.3958 0 12.4259 0 13.5V22.95C0 24.0241 0.426732 25.0543 1.18632 25.8138C1.94591 26.5733 2.97613 27 4.05035 27H21.2373C22.1849 26.9997 23.1023 26.6672 23.83 26.0604C24.5577 25.4537 25.0496 24.611 25.2202 23.679L26.9348 14.229C27.0409 13.645 27.0173 13.0448 26.8656 12.4709C26.714 11.897 26.438 11.3635 26.0573 10.908ZM6.75059 24.3H4.05035C3.69228 24.3 3.34887 24.1578 3.09568 23.9046C2.84248 23.6514 2.70023 23.3081 2.70023 22.95V13.5C2.70023 13.142 2.84248 12.7986 3.09568 12.5454C3.34887 12.2923 3.69228 12.15 4.05035 12.15H6.75059V24.3ZM24.3021 13.743L22.5875 23.193C22.53 23.5075 22.3627 23.7914 22.1154 23.9941C21.8682 24.1968 21.557 24.3052 21.2373 24.3H9.45082V11.0835L13.1231 2.82155C13.5012 2.93175 13.8522 3.1191 14.1542 3.37179C14.4561 3.62448 14.7024 3.93701 14.8775 4.28967C15.0526 4.64232 15.1526 5.02744 15.1713 5.4207C15.1901 5.81397 15.1271 6.20685 14.9863 6.57455L14.2707 8.50504C14.1183 8.91309 14.0668 9.35196 14.1207 9.78421C14.1746 10.2165 14.3323 10.6292 14.5804 10.9873C14.8284 11.3454 15.1594 11.6382 15.5451 11.8407C15.9308 12.0431 16.3598 12.1493 16.7955 12.15H22.952C23.1503 12.1497 23.3463 12.1931 23.526 12.2771C23.7057 12.3611 23.8646 12.4836 23.9916 12.636C24.1216 12.7863 24.2169 12.9635 24.2706 13.1548C24.3243 13.3462 24.335 13.547 24.3021 13.743Z" fill="black"/>
</svg>
