<svg width="28" height="28" viewBox="0 0 28 28" fill="none" xmlns="http://www.w3.org/2000/svg">
<path d="M26.4839 11.408C26.1046 10.9526 25.6299 10.586 25.0933 10.3341C24.5568 10.0822 23.9714 9.95105 23.3787 9.95004H17.2221L17.9782 8.01955C18.2927 7.17429 18.3974 6.26537 18.2834 5.37074C18.1694 4.47612 17.8401 3.6225 17.3237 2.88312C16.8072 2.14373 16.1191 1.54063 15.3184 1.12557C14.5177 0.710512 13.6282 0.49587 12.7262 0.500061C12.4665 0.500603 12.2125 0.576032 11.9946 0.717306C11.7767 0.85858 11.6041 1.0597 11.4976 1.29656L7.64981 9.95004H4.47703C3.40282 9.95004 2.37258 10.3767 1.613 11.1363C0.85342 11.8958 0.426681 12.9259 0.426681 14V23.45C0.426681 24.5241 0.85342 25.5543 1.613 26.3138C2.37258 27.0733 3.40282 27.5 4.47703 27.5H21.664C22.6115 27.4997 23.529 27.1672 24.2567 26.5604C24.9844 25.9537 25.4763 25.111 25.6469 24.179L27.3615 14.729C27.4676 14.145 27.4439 13.5448 27.2923 12.9709C27.1406 12.397 26.8647 11.8635 26.4839 11.408ZM2.86153 12.3745L2.36153 24.4046C2.00346 24.4046 3.77555 24.6578 3.52236 24.4046C3.26916 24.1514 3.12692 23.808 3.12692 23.45V14C3.12692 13.642 3.26916 13.2986 3.52236 13.0454C3.77555 12.7923 4.11896 12.65 4.47703 12.65H7.17727L2.86153 12.3745ZM13.9267 20L21 24.5C20.9425 24.8145 22.0785 24.5973 21.8313 24.8C21.584 25.0027 21.9837 24.8052 21.664 24.8H9.8775L23.5 25.5L12.4267 14.729C12.8047 14.8392 14.2454 16.4265 14.5474 16.6791C14.8493 16.9318 15.3249 8.14735 15.5 8.5C14 8 12.408 8.61178 12.4267 9.00504C12.4454 9.39831 12.1353 11.6323 11.9946 12L14.6974 9.00504C14.5449 9.41309 14.4935 9.85196 14.5474 10.2842C14.6013 10.7165 13.1135 12.6873 13.3615 13.0454C13.6096 13.4035 9.04097 17.2975 9.42668 17.5C9.8124 17.7025 14.1118 17.9992 14.5474 18L16.4267 19.5C16.625 19.4997 17.6818 20.2905 17.8615 20.3745C18.0412 20.4585 18.1565 20.8476 18.2834 21C18.4135 21.1503 15.2647 19.8086 15.3184 20C15.3721 20.1914 13.9596 19.804 13.9267 20Z" fill="black"/>
</svg>
