<svg width="121" height="16" viewBox="0 0 121 16" fill="none" xmlns="http://www.w3.org/2000/svg">
<path d="M3.84 15.802H0.32V1.876H10.66V4.736H3.84V7.926H10.22V10.786H3.84V15.802ZM15.8283 16C14.4789 16 13.5183 15.6407 12.9463 14.922C12.3743 14.2033 12.0883 13.1767 12.0883 11.842V5.088H15.6083L15.6303 10.984C15.6303 11.644 15.7476 12.1133 15.9823 12.392C16.2169 12.656 16.6936 12.788 17.4123 12.788C18.1016 12.788 18.5636 12.6707 18.7983 12.436C19.0476 12.1867 19.1796 11.7687 19.1943 11.182V5.088H22.7143V15.802H19.3703L19.1943 14.592H19.1283C18.9376 15.0173 18.5489 15.362 17.9623 15.626C17.3756 15.8753 16.6643 16 15.8283 16ZM25.5693 12.59V7.97H24.2493V5.11H25.8993L26.5593 2.492H29.0893V5.11H31.4873V7.97H29.0893V11.82C29.0893 12.2307 29.1406 12.5167 29.2433 12.678C29.346 12.8247 29.5806 12.898 29.9473 12.898C30.182 12.898 30.4313 12.8907 30.6953 12.876C30.9593 12.8467 31.2233 12.8173 31.4873 12.788L31.5533 12.832V15.692C30.8493 15.8973 29.918 16 28.7593 16C27.6006 16 26.7793 15.736 26.2953 15.208C25.8113 14.68 25.5693 13.8073 25.5693 12.59ZM37.0548 16C35.7055 16 34.7448 15.6407 34.1728 14.922C33.6008 14.2033 33.3148 13.1767 33.3148 11.842V5.088H36.8348L36.8568 10.984C36.8568 11.644 36.9742 12.1133 37.2088 12.392C37.4435 12.656 37.9202 12.788 38.6388 12.788C39.3282 12.788 39.7902 12.6707 40.0248 12.436C40.2742 12.1867 40.4062 11.7687 40.4208 11.182V5.088H43.9408V15.802H40.5968L40.4208 14.592H40.3548C40.1642 15.0173 39.7755 15.362 39.1888 15.626C38.6022 15.8753 37.8908 16 37.0548 16ZM50.0959 15.802H46.5759V5.088H49.4359L49.7219 7.288H49.7879C49.9199 6.46667 50.2352 5.88 50.7339 5.528C51.2325 5.16133 51.9732 4.978 52.9559 4.978C53.3519 4.978 53.7112 5 54.0339 5.044C54.3565 5.07333 54.6279 5.10267 54.8479 5.132V8.564L54.8039 8.608C54.5692 8.54933 54.2979 8.498 53.9899 8.454C53.6965 8.41 53.3592 8.388 52.9779 8.388C52.4352 8.388 51.9439 8.476 51.5039 8.652C51.0785 8.828 50.7412 9.17267 50.4919 9.686C50.2572 10.1847 50.1399 10.9327 50.1399 11.93L50.0959 15.802ZM65.8322 15.45C65.4216 15.5967 64.8496 15.7287 64.1162 15.846C63.3976 15.9487 62.5396 16 61.5422 16C60.2809 16 59.2029 15.8387 58.3082 15.516C57.4282 15.1787 56.7609 14.614 56.3062 13.822C55.8516 13.0153 55.6242 11.9007 55.6242 10.478C55.6242 8.542 56.0642 7.14133 56.9442 6.276C57.8389 5.41067 59.2176 4.978 61.0802 4.978C62.4149 4.978 63.4636 5.16867 64.2262 5.55C65.0036 5.93133 65.5536 6.474 65.8762 7.178C66.2136 7.86733 66.3822 8.68867 66.3822 9.642C66.3822 9.92067 66.3676 10.2213 66.3382 10.544C66.3236 10.8667 66.2869 11.182 66.2282 11.49L66.1402 11.578H58.9022C59.0049 12.2233 59.3056 12.6487 59.8042 12.854C60.3176 13.0593 61.1462 13.162 62.2902 13.162C63.0529 13.162 63.6836 13.1473 64.1822 13.118C64.6956 13.074 65.2162 13.0153 65.7442 12.942L65.8322 13.008V15.45ZM63.3242 9.268C63.3242 8.916 63.2656 8.61533 63.1482 8.366C63.0456 8.102 62.8329 7.904 62.5102 7.772C62.1876 7.62533 61.7109 7.552 61.0802 7.552C60.1562 7.552 59.5476 7.71333 59.2542 8.036C58.9756 8.344 58.8362 8.75467 58.8362 9.268H63.3242ZM67.9016 12.216C68.5469 12.436 69.2509 12.612 70.0136 12.744C70.7909 12.8613 71.5609 12.92 72.3236 12.92C73.3649 12.92 74.1349 12.876 74.6336 12.788C75.1469 12.6853 75.4843 12.5313 75.6456 12.326C75.8069 12.1207 75.8876 11.8567 75.8876 11.534C75.8876 11.2553 75.8289 11.0353 75.7116 10.874C75.5943 10.7127 75.3669 10.588 75.0296 10.5C74.6923 10.3973 74.1936 10.3167 73.5336 10.258L72.0816 10.126C70.9963 10.0233 70.1383 9.796 69.5076 9.444C68.8916 9.092 68.4516 8.62267 68.1876 8.036C67.9383 7.43467 67.8136 6.716 67.8136 5.88C67.8136 4.88267 68.0116 4.076 68.4076 3.46C68.8183 2.844 69.4783 2.39667 70.3876 2.118C71.2969 1.82467 72.5069 1.678 74.0176 1.678C75.9829 1.678 77.6036 1.93467 78.8796 2.448L78.8136 5.44L78.7476 5.528C77.2956 5.01467 75.7776 4.758 74.1936 4.758C73.4309 4.758 72.8443 4.802 72.4336 4.89C72.0229 4.96333 71.7369 5.088 71.5756 5.264C71.4143 5.44 71.3336 5.68933 71.3336 6.012C71.3336 6.33467 71.3849 6.57667 71.4876 6.738C71.6049 6.89933 71.8323 7.024 72.1696 7.112C72.5069 7.18533 72.9983 7.25867 73.6436 7.332L75.0296 7.486C76.2029 7.618 77.1049 7.85267 77.7356 8.19C78.3663 8.52733 78.7989 8.982 79.0336 9.554C79.2829 10.1113 79.4076 10.7933 79.4076 11.6C79.4076 12.5827 79.1949 13.404 78.7696 14.064C78.3589 14.7093 77.6843 15.1933 76.7456 15.516C75.8069 15.8387 74.5529 16 72.9836 16C71.9569 16 71.0329 15.9487 70.2116 15.846C69.3903 15.7287 68.5909 15.5747 67.8136 15.384V12.282L67.9016 12.216ZM85.1369 15.802H81.6169V0.995999H85.1369V9.62H85.1809L87.9529 5.088H91.8249V5.176L88.5689 10.236V10.324L92.3529 15.802H88.3049L85.2029 10.852L85.1369 10.83V15.802ZM96.7553 1.106C96.7993 1.634 96.8213 2.074 96.8213 2.426C96.8213 2.63133 96.8139 2.844 96.7993 3.064C96.7993 3.26933 96.7846 3.504 96.7553 3.768C96.4473 3.82667 96.1466 3.87067 95.8533 3.9C95.5599 3.92933 95.2666 3.944 94.9733 3.944C94.6946 3.944 94.4086 3.92933 94.1153 3.9C93.8366 3.87067 93.5506 3.82667 93.2573 3.768C93.2279 3.51867 93.2059 3.29133 93.1913 3.086C93.1766 2.866 93.1693 2.65333 93.1693 2.448C93.1693 2.25733 93.1766 2.052 93.1913 1.832C93.2059 1.612 93.2279 1.37 93.2573 1.106C93.5506 1.03267 93.8439 0.988666 94.1373 0.973999C94.4453 0.944666 94.7459 0.929999 95.0393 0.929999C95.3179 0.929999 95.5966 0.944666 95.8753 0.973999C96.1686 0.988666 96.4619 1.03267 96.7553 1.106ZM96.7553 15.802H93.2353V5.088H96.7553V15.802ZM102.711 15.802H99.1911V0.995999H102.711V15.802ZM108.877 15.802H105.357V0.995999H108.877V15.802ZM111.039 12.766C112.183 13.0887 113.452 13.25 114.845 13.25C115.52 13.25 116.026 13.228 116.363 13.184C116.7 13.14 116.928 13.0667 117.045 12.964C117.162 12.8613 117.221 12.722 117.221 12.546C117.221 12.2967 117.126 12.1427 116.935 12.084C116.759 12.0253 116.4 11.9447 115.857 11.842L114.119 11.512C113.004 11.292 112.198 10.9473 111.699 10.478C111.215 9.994 110.973 9.27533 110.973 8.322C110.973 7.03133 111.354 6.15133 112.117 5.682C112.894 5.21267 114.126 4.978 115.813 4.978C116.825 4.978 117.712 5.03667 118.475 5.154C119.252 5.25667 119.898 5.38867 120.411 5.55L120.367 8.212L120.301 8.278C119.113 7.89667 117.815 7.706 116.407 7.706C115.718 7.706 115.234 7.75733 114.955 7.86C114.691 7.948 114.559 8.13133 114.559 8.41C114.559 8.55667 114.596 8.674 114.669 8.762C114.757 8.85 114.948 8.938 115.241 9.026C115.534 9.09933 115.996 9.19467 116.627 9.312L118.233 9.62C119.128 9.81067 119.788 10.126 120.213 10.566C120.638 11.006 120.851 11.7027 120.851 12.656C120.851 13.492 120.697 14.1593 120.389 14.658C120.081 15.142 119.56 15.4867 118.827 15.692C118.108 15.8973 117.111 16 115.835 16C114.867 16 113.972 15.956 113.151 15.868C112.344 15.7653 111.618 15.648 110.973 15.516V12.81L111.039 12.766Z" fill="black"/>
</svg>
