<svg width="23" height="27" viewBox="0 0 23 27" fill="none" xmlns="http://www.w3.org/2000/svg">
<path d="M20.4458 14.2898L12.1717 22.7968C11.0869 23.7863 9.67488 24.313 8.22433 24.2692C6.77378 24.2254 5.39436 23.6143 4.36822 22.561C3.34209 21.5077 2.74678 20.0917 2.70408 18.6027C2.66138 17.1138 3.17451 15.6643 4.13851 14.5509L14.8494 3.55638C15.4888 2.93285 16.3372 2.5852 17.2192 2.5852C18.1011 2.5852 18.9495 2.93285 19.5889 3.55638C20.212 4.20449 20.5613 5.07839 20.5613 5.98892C20.5613 6.89944 20.212 7.77334 19.5889 8.42145L10.3508 17.8905C10.2594 17.9915 10.1495 18.0731 10.0273 18.1306C9.90517 18.188 9.77319 18.2203 9.63892 18.2254C9.50465 18.2305 9.37071 18.2084 9.24476 18.1603C9.11881 18.1123 9.0033 18.0393 8.90484 17.9454C8.80639 17.8516 8.7269 17.7388 8.67092 17.6134C8.61494 17.488 8.58357 17.3525 8.5786 17.2147C8.57363 17.0769 8.59515 16.9394 8.64194 16.8101C8.68872 16.6808 8.75986 16.5623 8.85129 16.4612L15.7196 9.4247C15.9717 9.16591 16.1134 8.81492 16.1134 8.44894C16.1134 8.08296 15.9717 7.73196 15.7196 7.47318C15.4675 7.21439 15.1256 7.069 14.769 7.069C14.4125 7.069 14.0706 7.21439 13.8185 7.47318L6.95011 14.5371C6.60643 14.8872 6.33366 15.3036 6.14751 15.7624C5.96136 16.2211 5.86553 16.7132 5.86553 17.2102C5.86553 17.7072 5.96136 18.1992 6.14751 18.658C6.33366 19.1168 6.60643 19.5332 6.95011 19.8832C7.65217 20.5697 8.5846 20.9526 9.55419 20.9526C10.5238 20.9526 11.4562 20.5697 12.1583 19.8832L21.383 10.4005C22.4472 9.2281 23.0266 7.6775 22.9991 6.07531C22.9715 4.47313 22.3392 2.94446 21.2354 1.81137C20.1315 0.678282 18.6423 0.0292322 17.0814 0.000963506C15.5206 -0.0273052 14.01 0.567414 12.8679 1.65983L2.157 12.6543C0.712643 14.2964 -0.0587676 16.4472 0.00349608 18.6587C0.0657598 20.8701 0.956896 22.9716 2.49123 24.5253C4.02557 26.079 6.08478 26.9651 8.23981 26.999C10.3948 27.0328 12.4795 26.2119 14.0594 24.7071L22.347 16.2138C22.4718 16.0857 22.5708 15.9335 22.6384 15.7661C22.7059 15.5987 22.7407 15.4193 22.7407 15.238C22.7407 15.0568 22.7059 14.8774 22.6384 14.71C22.5708 14.5425 22.4718 14.3904 22.347 14.2623C22.2221 14.1341 22.0739 14.0325 21.9108 13.9632C21.7477 13.8938 21.5729 13.8581 21.3964 13.8581C21.2198 13.8581 21.045 13.8938 20.8819 13.9632C20.7188 14.0325 20.5706 14.1341 20.4458 14.2623V14.2898Z" fill="#777777"/>
</svg>
