<svg width="26" height="26" viewBox="0 0 26 26" fill="none" xmlns="http://www.w3.org/2000/svg">
<path d="M13 0.5C19.9 0.5 25.5 6.1 25.5 13C25.5 19.9 19.9 25.5 13 25.5C6.1 25.5 0.5 19.9 0.5 13C0.5 6.1 6.1 0.5 13 0.5ZM5.52875 17.27C7.36375 20.0075 10.1187 21.75 13.2 21.75C16.2812 21.75 19.0362 20.0088 20.87 17.27C18.7895 15.326 16.0474 14.2463 13.2 14.25C10.3522 14.2459 7.60953 15.3257 5.52875 17.27ZM13 11.75C13.9946 11.75 14.9484 11.3549 15.6517 10.6517C16.3549 9.94839 16.75 8.99456 16.75 8C16.75 7.00544 16.3549 6.05161 15.6517 5.34835C14.9484 4.64509 13.9946 4.25 13 4.25C12.0054 4.25 11.0516 4.64509 10.3483 5.34835C9.64509 6.05161 9.25 7.00544 9.25 8C9.25 8.99456 9.64509 9.94839 10.3483 10.6517C11.0516 11.3549 12.0054 11.75 13 11.75Z" fill="black"/>
</svg>
