<svg width="32" height="20" viewBox="0 0 32 20" fill="none" xmlns="http://www.w3.org/2000/svg">
<path fill-rule="evenodd" clip-rule="evenodd" d="M28.4832 13.6768C28.4832 13.6768 31.0704 16.232 31.7104 17.4144C31.7229 17.4314 31.7326 17.4503 31.7392 17.4704C32 17.9072 32.064 18.2496 31.936 18.5024C31.72 18.92 30.9888 19.1296 30.7408 19.1472H26.168C25.8496 19.1472 25.1872 19.064 24.3808 18.5072C23.7648 18.0768 23.152 17.368 22.5584 16.6752C21.672 15.6464 20.9056 14.7536 20.1296 14.7536C20.0316 14.7534 19.9343 14.7696 19.8416 14.8016C19.2544 14.9872 18.5088 15.824 18.5088 18.0528C18.5088 18.7504 17.9584 19.1472 17.5728 19.1472H15.4784C14.7648 19.1472 11.0496 18.8976 7.75522 15.424C3.71842 11.1712 0.092822 2.63998 0.057622 2.56478C-0.167978 2.01278 0.305622 1.71198 0.817622 1.71198H5.43522C6.05442 1.71198 6.25602 2.08638 6.39682 2.42238C6.56002 2.80798 7.16482 4.35038 8.15682 6.08318C9.76322 8.90238 10.7504 10.0496 11.5392 10.0496C11.6874 10.05 11.8331 10.0114 11.9616 9.93758C12.992 9.37118 12.8 5.69118 12.752 4.93278C12.752 4.78558 12.7504 3.28958 12.2224 2.56638C11.8448 2.04798 11.2016 1.84638 10.8128 1.77278C10.9168 1.62238 11.1376 1.39198 11.4208 1.25598C12.1264 0.903983 13.4016 0.852783 14.6672 0.852783H15.3696C16.7424 0.871983 17.0976 0.959983 17.5968 1.08638C18.6016 1.32638 18.6208 1.97758 18.5328 4.19518C18.5072 4.82878 18.48 5.54238 18.48 6.38238C18.48 6.56158 18.472 6.76158 18.472 6.96478C18.4416 8.10238 18.4016 9.38398 19.2048 9.91038C19.309 9.97528 19.4293 10.0096 19.552 10.0096C19.8304 10.0096 20.664 10.0096 22.9248 6.12958C23.9168 4.41598 24.6848 2.39518 24.7376 2.24318C24.7824 2.15838 24.9168 1.91998 25.08 1.82398C25.1961 1.76222 25.3262 1.73136 25.4576 1.73438H30.8896C31.4816 1.73438 31.8832 1.82398 31.9616 2.04798C32.0928 2.41118 31.936 3.51998 29.456 6.87358C29.0384 7.43198 28.672 7.91518 28.3504 8.33758C26.1024 11.288 26.1024 11.4368 28.4832 13.6768Z" fill="black"/>
</svg>
